<?xml version="1.0" encoding="UTF-8" standalone="no"?>
<svg
   xmlns:dc="http://purl.org/dc/elements/1.1/"
   xmlns:cc="http://creativecommons.org/ns#"
   xmlns:rdf="http://www.w3.org/1999/02/22-rdf-syntax-ns#"
   xmlns:svg="http://www.w3.org/2000/svg"
   xmlns="http://www.w3.org/2000/svg"
   id="svg16"
   version="1.1"
   style="overflow:visible"
   viewBox="-240 -178 480 353"
   height="1412px"
   width="1920px">
  <metadata
     id="metadata22">
    <rdf:RDF>
      <cc:Work
         rdf:about="">
        <dc:format>image/svg+xml</dc:format>
        <dc:type
           rdf:resource="http://purl.org/dc/dcmitype/StillImage" />
      </cc:Work>
    </rdf:RDF>
  </metadata>
  <defs
     id="defs20" />
  <rect
     id="rect2"
     fill-opacity="0"
     fill="rgb(0,0,0)"
     height="353"
     width="480"
     y="-178"
     x="-240" />
  <svg
     id="svg8"
     version="1.1"
     y="-250"
     x="-250"
     viewBox="-250 -250 500 500"
     height="500"
     width="500"
     style="overflow:visible">
    <g
       style="fill:#ffffff;stroke-linejoin:round"
       id="g6">
      <path
         style="fill:#1a73e8;fill-opacity:1;stroke:#000000;stroke-width:0;stroke-linecap:round;stroke-linejoin:round;stroke-opacity:0"
         id="path4"
         d="M 156,0 A 156,156 0 0 1 0,156 156,156 0 0 1 -156,0 156,156 0 0 1 0,-156 156,156 0 0 1 156,0 Z" />
    </g>
  </svg>
  <svg
     id="svg14"
     version="1.1"
     y="-246"
     x="-250"
     viewBox="-250 -250 500 500"
     height="500"
     width="500"
     style="overflow:visible">
    <g
       style="fill:#ffffff;stroke-linejoin:round"
       id="g12">
      <path
         style="fill:#ffffff;fill-opacity:1;stroke:#ffffff;stroke-width:8;stroke-linecap:butt;stroke-linejoin:round;stroke-opacity:1"
         id="path10"
         d="m 85.09,-72.91 a 20.002,20.002 0 0 0 -13.732,6.0899 l -90.898,91.4 -51.898,-52.186 a 20.002,20.002 0 1 0 -28.363,28.207 l 66.08,66.444999 a 20.002,20.002 0 0 0 28.363,0 l 105.08,-105.66 a 20.002,20.002 0 0 0 -14.631,-34.295 z" />
    </g>
  </svg>
</svg>
